<?xml version="1.0" encoding="UTF-8" standalone="no"?>
<!DOCTYPE svg PUBLIC "-//W3C//DTD SVG 1.1//EN" "http://www.w3.org/Graphics/SVG/1.1/DTD/svg11.dtd">
<svg width="100%" height="100%" viewBox="0 0 1080 1080" version="1.1" xmlns="http://www.w3.org/2000/svg" xmlns:xlink="http://www.w3.org/1999/xlink" xml:space="preserve" xmlns:serif="http://www.serif.com/" style="fill-rule:evenodd;clip-rule:evenodd;stroke-linejoin:round;stroke-miterlimit:1.5;">
    <g transform="matrix(1,0,0,1,2.1644,1.91474)">
        <g id="Fill" transform="matrix(1.21261,0,0,1.21261,-189.811,-356.597)">
            <path d="M708.931,977.95L688.796,1069.56L544.865,1048.24L708.931,977.95Z" style="fill:rgb(245,158,11);fill-opacity:0.46;"/>
            <path d="M244.89,1176.76L250.966,962.766L334.475,897.643L338.266,897.642L725.904,897.642L728.226,969.684L244.89,1176.76Z" style="fill:rgb(245,158,11);fill-opacity:0.46;"/>
            <path d="M820.585,495.094L1003.28,587.433L809.213,543.445L820.585,495.094Z" style="fill:rgb(245,158,11);fill-opacity:0.46;"/>
            <path d="M425.25,811.507L338.266,897.642L334.475,897.643L196.853,298.879L425.25,811.507Z" style="fill:rgb(245,158,11);fill-opacity:0.46;"/>
            <path d="M415.293,789.158L482.958,754.362L425.25,811.507L415.293,789.158Z" style="fill:rgb(245,158,11);fill-opacity:0.46;"/>
            <path d="M548.125,720.685L660.357,663.956L680.873,698.64L635.053,807.211L548.125,720.685Z" style="fill:rgb(245,158,11);fill-opacity:0.46;"/>
            <path d="M725.904,897.642L635.053,807.211L751.946,530.237L820.585,495.094L725.904,897.642Z" style="fill:rgb(245,158,11);fill-opacity:0.46;"/>
            <path d="M338.266,897.642L532.586,705.218L725.904,897.642L338.266,897.642Z" style="fill:rgb(245,158,11);fill-opacity:0.46;"/>
        </g>
        <g id="Curves" transform="matrix(1.21261,0,0,1.21261,-189.811,-356.597)">
            <path d="M425.25,811.507L532.586,705.218L725.904,897.642L338.266,897.642L425.25,811.507L196.853,298.879L334.475,897.643L338.266,897.642L334.475,897.643L250.966,962.766L244.89,1176.76L728.226,969.684L725.904,897.642L820.585,495.094L751.946,530.237L635.053,807.211M708.931,977.95L688.796,1069.56L544.865,1048.24M415.293,789.158L482.958,754.362M548.125,720.685L660.357,663.956L680.873,698.64" style="fill:none;stroke:rgb(245,158,11);stroke-width:8.25px;"/>
            <path d="M820.585,495.094L1003.28,587.433L809.213,543.445" style="fill:none;stroke:rgb(245,158,11);stroke-width:8.25px;"/>
        </g>
    </g>
</svg>
