<?xml version="1.0" encoding="UTF-8" standalone="no"?>
<!DOCTYPE svg PUBLIC "-//W3C//DTD SVG 1.1//EN" "http://www.w3.org/Graphics/SVG/1.1/DTD/svg11.dtd">
<svg width="100%" height="100%" viewBox="0 0 1080 1080" version="1.1" xmlns="http://www.w3.org/2000/svg" xmlns:xlink="http://www.w3.org/1999/xlink" xml:space="preserve" xmlns:serif="http://www.serif.com/" style="fill-rule:evenodd;clip-rule:evenodd;stroke-linejoin:round;stroke-miterlimit:1.5;">
    <g transform="matrix(1.05598,0,0,1.05598,-34.9075,-51.7501)">
        <path d="M719.93,591.948L1041.75,463.558L838.752,724.558L729.252,744.058L705.003,721.881L719.93,591.948Z" style="fill:rgb(245,158,11);fill-opacity:0.46;"/>
    </g>
    <g transform="matrix(1.05598,0,0,1.05598,-34.9075,-51.7501)">
        <path d="M729.252,744.058L682.752,915.558L705.003,721.881L729.252,744.058Z" style="fill:rgb(245,158,11);fill-opacity:0.46;"/>
    </g>
    <g transform="matrix(1.05598,0,0,1.05598,-34.9075,-51.7501)">
        <path d="M682.752,915.558L650.087,901.36L687.616,544.298L726.835,531.844L682.752,915.558Z" style="fill:rgb(245,158,11);fill-opacity:0.46;"/>
    </g>
    <g transform="matrix(1.05598,0,0,1.05598,-34.9075,-51.7501)">
        <path d="M722.231,479.206L738.335,463.702L785.039,476.589L722.231,479.206Z" style="fill:rgb(245,158,11);fill-opacity:0.46;"/>
    </g>
    <g transform="matrix(1.05598,0,0,1.05598,-34.9075,-51.7501)">
        <path d="M918.335,471.035L687.616,544.298L694.335,480.368L918.335,471.035Z" style="fill:rgb(245,158,11);fill-opacity:0.46;"/>
    </g>
    <g transform="matrix(1.05598,0,0,1.05598,-34.9075,-51.7501)">
        <path d="M551.252,566.031L628.328,625.716L602.218,713.765L551.252,566.031Z" style="fill:rgb(245,158,11);fill-opacity:0.46;"/>
    </g>
    <g transform="matrix(1.05598,0,0,1.05598,-34.9075,-51.7501)">
        <path d="M694.335,480.368L647.668,924.368L625.252,780.531L602.218,713.765L662.335,511.035L694.335,480.368Z" style="fill:rgb(245,158,11);fill-opacity:0.46;"/>
    </g>
    <g transform="matrix(1.05598,0,0,1.05598,-34.9075,-51.7501)">
        <path d="M532.335,850.872L439.002,864.205L415.645,801.759L519.167,812.635L532.335,850.872Z" style="fill:rgb(245,158,11);fill-opacity:0.46;"/>
    </g>
    <g transform="matrix(1.05598,0,0,1.05598,-34.9075,-51.7501)">
        <path d="M647.668,924.368L532.335,850.872L519.167,812.635L556.252,816.531L625.252,780.531L647.668,924.368Z" style="fill:rgb(245,158,11);fill-opacity:0.46;"/>
    </g>
    <g transform="matrix(1.05598,0,0,1.05598,-34.9075,-51.7501)">
        <path d="M378.252,698.531L551.252,566.031L625.252,780.531L378.252,698.531Z" style="fill:rgb(245,158,11);fill-opacity:0.46;"/>
    </g>
    <g transform="matrix(1.05598,0,0,1.05598,-34.9075,-51.7501)">
        <path d="M378.252,698.531L625.252,780.531L556.252,816.531L42.252,762.531L249.752,740.531L378.252,698.531Z" style="fill:rgb(245,158,11);fill-opacity:0.46;"/>
    </g>
    <g transform="matrix(1.05598,0,0,1.05598,-34.9075,-51.7501)">
        <path d="M434.302,655.603L378.252,698.531L159.002,181.538L434.302,655.603Z" style="fill:rgb(245,158,11);fill-opacity:0.46;"/>
    </g>
    <g transform="matrix(1.05598,0,0,1.05598,-34.9075,-51.7501)">
        <path d="M378.252,698.531L551.252,566.031L625.252,780.531L378.252,698.531L249.752,740.531L42.252,762.531L556.252,816.531L625.252,780.531M551.252,566.031L628.328,625.716M719.93,591.948L1041.75,463.558L838.752,724.558L729.252,744.058L705.003,721.881L729.252,744.058L682.752,915.558L726.835,531.844M625.252,780.531L647.668,924.368L694.335,480.368L662.335,511.035L602.218,713.765M682.752,915.558L650.087,901.36M687.616,544.298L918.335,471.035L694.335,480.368M722.231,479.206L738.335,463.702L785.039,476.589M434.302,655.603L159.002,181.538L378.252,698.531M647.668,924.368L532.335,850.872L439.002,864.205L415.645,801.759M532.335,850.872L519.167,812.635" style="fill:none;stroke:rgb(245,158,11);stroke-width:9.44px;"/>
    </g>
</svg>
